The.Doors.1991.BRRip.H264.AAC.GopoThe.Doors.1991.BRRip.H264.AAC.Gopo.mp4
General
Complete name : D:The.Doors.1991.BRRip.H264.AAC.GopoThe.Doors.1991.BRRip.H264.AAC.Gopo.mp4
Format : MPEG-4
Format profile : Base Media
Codec ID : isom
File size : 1.37 GiB
Duration : 2h 20mn
Overall bit rate : 1 392 Kbps
Encoded date : UTC 2009-11-03 11:51:56
Tagged date : UTC 2009-11-03 11:51:56
Video #1
Format : AVC
Format/Info : Advanced Video Codec
Format profile : High@L5.1
Format settings, CABAC : Yes
Format settings, ReFrames : 4 frames
Codec ID : avc1
Codec ID/Info : Advanced Video Coding
Duration : 2h 20mn
Bit rate mode : Variable
Bit rate : 1 261 Kbps
Maximum bit rate : 3 805 Kbps
Width : 1 280 pixels
Height : 544 pixels
Display aspect ratio : 2.35
Frame rate mode : Constant
Frame rate : 23.976 fps
Resolution : 24 bits
Colorimetry : 4:2:0
Scan type : Progressive
Bits/(Pixel*Frame) : 0.076
Stream size : 1.24 GiB (91%)
Writing library : x264 core 68 r1183M f21daff
Encoding settings : cabac=1 / ref=4 / deblock=1:-1:-1 / analyse=0x3:0x113 / me=umh / subme=8 / psy_rd=1.0:0.0 / mixed_ref=1 / me_range=16 / chroma_me=1 / trellis=2 / 8x8dct=1 / cqm=0 / deadzone=21,11 / chroma_qp_offset=-2 / threads=3 / nr=0 / decimate=1 / mbaff=0 / bframes=3 / b_pyramid=0 / b_adapt=2 / b_bias=0 / direct=3 / wpredb=1 / keyint=250 / keyint_min=25 / scenecut=40 / rc=2pass / bitrate=1261 / ratetol=1.0 / qcomp=0.60 / qpmin=10 / qpmax=51 / qpstep=4 / cplxblur=20.0 / qblur=0.5 / vbv_maxrate=50000 / vbv_bufsize=50000 / ip_ratio=1.40 / pb_ratio=1.30 / aq=1:1.00
Encoded date : UTC 2009-11-02 18:20:17
Tagged date : UTC 2009-11-03 11:55:15
Audio #2
Format : AAC
Format/Info : Advanced Audio Codec
Format version : Version 4
Format profile : LC
Format settings, SBR : Yes
Format settings, PS : No
Codec ID : 40
Duration : 2h 20mn
Bit rate mode : Variable
Bit rate : 128 Kbps
Maximum bit rate : 170 Kbps
Channel(s) : 2 channels
Channel positions : L R
Sampling rate : 48.0 KHz
Resolution : 16 bits
Stream size : 129 MiB (9%)
Encoded date : UTC 2009-11-03 11:54:55
Tagged date : UTC 2009-11-03 11:55:15

PLOT

Oliver Stone's homage to 60's rock group The Doors also doubles as a biography of the group's late singer, the "Electric Poet" Jim Morrison. The movie follows Morrison from his days as a film student in Los Angeles to his death in Paris in 1971, at the age of 27. The movies features a tour- de-force performance by Val Kilmer, who not only looks like Jim Morrison's long-lost twin brother, but also sounds so much like him that he did much of his own singing. It has been written that even the surviving Doors had trouble distinguishing Kilmer's vocals from Morrison's originals.

Director: Oliver Stone
CASTING

Val Kilmer ... Jim Morrison
Meg Ryan ... Pamela Courson
Billy Idol ... Cat
Kevin Dillon ... John Densmore
Kathleen Quinlan ... Patricia Kennealy
Michael Wincott ... Paul Rothchild
Michael Madsen ... Tom Baker
Josh Evans ... Bill Siddons
Dennis Burkley ... Dog
Kyle MacLachlan ... Ray Manzarek
Frank Whaley ... Robby Krieger
John Densmore ... Engineer - Last Session
Gretchen Becker ... Mom
Jerry Sturm ... Dad
Sean Stone ... Young Jim

SOURCE: The.Doors.1991.720p.BluRay.x264-SiNNERS